<?xml version="1.0" encoding="utf-8"?>
<!-- Generator: Adobe Illustrator 19.1.0, SVG Export Plug-In . SVG Version: 6.00 Build 0)  -->
<svg version="1.1" id="Layer_1" xmlns="http://www.w3.org/2000/svg" xmlns:xlink="http://www.w3.org/1999/xlink" x="0px" y="0px"
	 viewBox="-245 197.6 300 219.4" style="enable-background:new -245 197.6 300 219.4;" xml:space="preserve">
<style type="text/css">
	.st0{fill:#223538;}
	.st1{fill:#4C6268;}
	.st2{fill:#2A3E41;}
</style>
<g>
	<g>
		<path class="st0" d="M-228.6,372.6l17.8-28.4c0.1-0.2,0.3-0.3,0.6-0.4s0.5,0,0.7,0.1l5.1,3.2c0.2,0.1,0.4,0.4,0.4,0.6
			c0.1,0.3,0,0.5-0.1,0.7l-6.8,10.8l12.3,7.7l6.8-10.8c0.1-0.2,0.3-0.4,0.6-0.4c0.3-0.1,0.5,0,0.7,0.1l5.1,3.2
			c0.2,0.1,0.3,0.3,0.4,0.6c0.1,0.3,0,0.5-0.1,0.7l-17.8,28.4c-0.1,0.2-0.3,0.3-0.6,0.4s-0.5,0-0.7-0.1l-5.1-3.2
			c-0.2-0.1-0.4-0.4-0.4-0.6s0-0.5,0.1-0.7l7.1-11.3l-12.3-7.7l-7.1,11.3c-0.1,0.2-0.3,0.4-0.6,0.4c-0.3,0.1-0.5,0-0.7-0.1l-5.1-3.2
			c-0.2-0.1-0.3-0.3-0.4-0.6C-228.7,373.1-228.7,372.9-228.6,372.6z"/>
		<path class="st0" d="M-177.8,381.6c0.4-1.6,1.1-3.1,1.9-4.5c0.8-1.4,1.8-2.7,2.9-3.7c1.1-1.1,2.3-2,3.7-2.8
			c1.4-0.8,2.8-1.4,4.3-1.8c1.5-0.4,3.1-0.6,4.7-0.6c1.6,0,3.3,0.2,4.9,0.7c2.4,0.7,4.6,1.8,6.5,3.3c1.9,1.5,3.4,3.3,4.6,5.3
			c1.1,2,1.9,4.2,2.2,6.6s0.2,4.8-0.5,7.2c-0.7,2.4-1.8,4.6-3.3,6.5c-1.5,1.9-3.3,3.4-5.3,4.6c-2,1.1-4.2,1.8-6.6,2.2
			c-2.4,0.3-4.8,0.1-7.2-0.5c-2.4-0.7-4.6-1.7-6.5-3.3c-1.9-1.5-3.4-3.3-4.6-5.2s-1.8-4.2-2.2-6.6S-178.4,384-177.8,381.6z
			 M-170,383.8c-0.7,2.7-0.4,5.2,1,7.6c1.4,2.4,3.4,4,6.1,4.8c2.7,0.7,5.2,0.4,7.7-1s4-3.4,4.8-6.1c0.7-2.7,0.4-5.3-1-7.7
			c-1.4-2.5-3.4-4-6.1-4.8c-2.7-0.7-5.2-0.4-7.6,1C-167.6,379.1-169.2,381.1-170,383.8z"/>
		<path class="st0" d="M-128.2,393.5c0.1-1.7,0.4-3.3,0.9-4.8c0.5-1.6,1.2-3,2-4.3c0.8-1.3,1.8-2.5,3-3.5c1.2-1.1,2.4-2,3.8-2.7
			c1.4-0.7,2.9-1.3,4.4-1.6c1.6-0.4,3.2-0.5,4.9-0.4c2.5,0.1,4.8,0.7,7,1.8c2.2,1.1,4.1,2.5,5.6,4.2c1.5,1.7,2.7,3.7,3.6,6
			c0.8,2.3,1.2,4.7,1.1,7.2c-0.1,2.5-0.7,4.8-1.8,7c-1.1,2.2-2.4,4.1-4.1,5.6c-1.7,1.5-3.7,2.7-6,3.6c-2.3,0.8-4.7,1.2-7.2,1.1
			c-2.5-0.1-4.8-0.7-7-1.8s-4.1-2.4-5.6-4.1c-1.5-1.7-2.7-3.7-3.5-6C-127.9,398.3-128.3,396-128.2,393.5z M-120.1,393.9
			c-0.1,2.8,0.7,5.2,2.6,7.3c1.9,2.1,4.2,3.2,6.9,3.3c2.8,0.1,5.2-0.7,7.3-2.6c2.1-1.9,3.2-4.2,3.3-7c0.1-2.8-0.7-5.2-2.6-7.3
			c-1.9-2.1-4.2-3.2-7-3.3c-2.7-0.1-5.2,0.7-7.2,2.6C-118.9,388.7-120,391.1-120.1,393.9z"/>
		<path class="st0" d="M-72.5,410.3l-4.7-32.6c0-0.3,0-0.6,0.2-0.9c0.2-0.3,0.4-0.4,0.8-0.5l5.7-0.8c0.3,0,0.6,0,0.9,0.2
			c0.3,0.2,0.4,0.5,0.5,0.8l1.9,13.2l9.1-15.5c0.2-0.4,0.5-0.6,0.9-0.7l6.3-0.9c0.5-0.1,0.8,0.1,1.1,0.5c0.3,0.4,0.3,0.8,0.1,1.2
			l-9.6,16.4l15.2,14.8c0.2,0.2,0.3,0.4,0.3,0.6c0,0.2,0,0.4,0,0.6c-0.2,0.5-0.5,0.7-1,0.8l-6.9,1c-0.2,0-0.3,0-0.6,0
			c-0.2,0-0.3-0.1-0.4-0.2l-13.8-14.1l2.2,14.9c0,0.3,0,0.6-0.2,0.9c-0.2,0.3-0.5,0.4-0.8,0.5l-5.7,0.8c-0.3,0-0.6,0-0.9-0.2
			S-72.4,410.6-72.5,410.3z"/>
		<path class="st0" d="M-25,401.3l-11.2-31.6c-0.1-0.2-0.1-0.5,0-0.7c0.1-0.2,0.3-0.4,0.6-0.5l19.7-7c0.3-0.1,0.5-0.1,0.7,0
			c0.2,0.1,0.4,0.3,0.5,0.5l1.9,5.2c0.1,0.2,0.1,0.5,0,0.7c-0.1,0.2-0.3,0.4-0.6,0.5l-13.2,4.7l2.1,5.9l10.8-3.9
			c0.2-0.1,0.5-0.1,0.7,0.1c0.2,0.1,0.4,0.3,0.5,0.5l1.9,5.2c0.1,0.3,0.1,0.5,0,0.7c-0.1,0.2-0.3,0.4-0.5,0.5l-10.8,3.9l2.3,6.4
			l13.2-4.7c0.3-0.1,0.5-0.1,0.7,0s0.4,0.3,0.5,0.5l1.8,5.2c0.1,0.2,0.1,0.5,0,0.7s-0.3,0.4-0.6,0.5l-19.7,7c-0.3,0.1-0.5,0.1-0.7,0
			C-24.8,401.7-24.9,401.6-25,401.3z"/>
		<path class="st0" d="M16.8,383.6l-19.2-27.4c-0.2-0.2-0.2-0.5-0.2-0.7c0-0.3,0.2-0.5,0.4-0.6l12.4-8.7c1.6-1.1,3.4-1.8,5.4-2
			c2-0.2,3.8,0.1,5.6,1s3.2,2,4.4,3.6c1.3,1.9,1.9,4,1.8,6.2c-0.1,2.3-0.8,4.5-2.2,6.5l13.1,6.4c0.3,0.2,0.5,0.4,0.6,0.8
			c0,0.4-0.1,0.7-0.4,0.9l-5.6,3.9c-0.3,0.2-0.6,0.3-0.9,0.1l-13.2-7l-2.9,2l7.3,10.5c0.1,0.2,0.2,0.4,0.1,0.7
			c0,0.3-0.2,0.5-0.4,0.6l-4.9,3.5c-0.2,0.2-0.5,0.2-0.7,0.2C17.2,384,17,383.9,16.8,383.6z M12.3,363.3l6.1-4.3
			c0.8-0.6,1.4-1.4,1.5-2.5s-0.1-2.1-0.7-3c-0.6-0.9-1.4-1.4-2.5-1.6c-1.1-0.2-2,0-2.9,0.6l-6.1,4.3L12.3,363.3z"/>
	</g>
	<g>
		<path class="st1" d="M-234.1,262.6l-3.6-4.2c-0.2-0.2-0.3-0.4-0.2-0.7c0-0.3,0.1-0.5,0.3-0.7l17-14.8c0.2-0.2,0.4-0.3,0.7-0.2
			s0.5,0.1,0.7,0.3l3.6,4.2c0.2,0.2,0.2,0.4,0.2,0.7c0,0.3-0.1,0.5-0.3,0.7l-5.5,4.8l17.8,20.4c0.2,0.2,0.2,0.4,0.2,0.7
			c0,0.3-0.1,0.5-0.3,0.7l-4.6,4c-0.2,0.2-0.4,0.2-0.7,0.2c-0.3,0-0.5-0.1-0.7-0.3l-17.8-20.4l-5.5,4.8c-0.2,0.2-0.4,0.3-0.7,0.2
			S-234,262.8-234.1,262.6z"/>
		<path class="st1" d="M-186.4,261.9l-14.9-30c-0.1-0.2-0.1-0.5,0-0.7c0.1-0.3,0.2-0.5,0.5-0.6l5.4-2.7c0.2-0.1,0.5-0.1,0.7,0
			c0.3,0.1,0.5,0.2,0.6,0.5l14.9,30c0.1,0.2,0.1,0.5,0,0.7c-0.1,0.3-0.2,0.5-0.5,0.6l-5.4,2.7c-0.2,0.1-0.5,0.1-0.7,0
			S-186.3,262.2-186.4,261.9z"/>
		<path class="st1" d="M-166.6,252l-2.3-34.4c0-0.2,0-0.4,0.2-0.6c0.2-0.2,0.3-0.3,0.5-0.4l0.8-0.2c0.1,0,0.3,0,0.5,0
			c0.2,0.1,0.4,0.1,0.5,0.2l16.5,18.6l0.1,0l6.4-24c0-0.1,0.1-0.3,0.3-0.4c0.2-0.1,0.3-0.2,0.4-0.3l0.8-0.2c0.2,0,0.4,0,0.6,0.1
			s0.4,0.3,0.4,0.5l13.4,31.8c0,0.1,0.1,0.1,0.1,0.2c0.1,0.2,0,0.5-0.1,0.7c-0.1,0.2-0.4,0.4-0.7,0.5l-5.8,1.4c-0.2,0-0.4,0-0.7-0.1
			c-0.2-0.1-0.4-0.3-0.5-0.5l-5.8-14.7l-0.1,0l-4.5,17.9c0,0.2-0.1,0.3-0.3,0.5c-0.2,0.1-0.3,0.2-0.4,0.3l-0.9,0.2
			c-0.1,0-0.3,0-0.5,0s-0.4-0.2-0.4-0.3l-12.1-14l-0.1,0l1.4,15.7c0,0.2,0,0.4-0.2,0.6c-0.1,0.2-0.3,0.3-0.6,0.4l-5.8,1.4
			c-0.3,0.1-0.6,0-0.8-0.1c-0.2-0.1-0.3-0.3-0.4-0.5C-166.6,252.1-166.6,252.1-166.6,252z"/>
		<path class="st1" d="M-115.7,225.4c0-1.7,0.2-3.3,0.6-4.9c0.4-1.6,1-3,1.8-4.4c0.8-1.3,1.7-2.6,2.8-3.7c1.1-1.1,2.3-2.1,3.6-2.9
			c1.3-0.8,2.8-1.4,4.3-1.9c1.6-0.5,3.2-0.7,4.8-0.7c2.5,0,4.9,0.4,7.1,1.4s4.2,2.2,5.8,3.8c1.6,1.6,2.9,3.5,3.9,5.8
			c1,2.2,1.5,4.6,1.5,7.1c0,2.5-0.4,4.9-1.4,7.1c-0.9,2.3-2.2,4.2-3.8,5.8c-1.6,1.6-3.5,2.9-5.8,3.9s-4.6,1.5-7.1,1.5
			c-2.5,0-4.9-0.4-7.1-1.3c-2.3-0.9-4.2-2.2-5.8-3.8c-1.6-1.6-2.9-3.5-3.9-5.8C-115.1,230.2-115.6,227.9-115.7,225.4z M-107.6,225.3
			c0,2.8,1,5.1,3,7.1c2,2,4.4,2.9,7.1,2.9c2.8,0,5.2-1,7.1-3.1c2-2,2.9-4.4,2.9-7.1c0-2.8-1-5.2-3.1-7.1s-4.4-2.9-7.2-2.9
			c-2.8,0-5.1,1-7.1,3.1C-106.6,220.1-107.6,222.5-107.6,225.3z"/>
		<path class="st1" d="M-64.3,215.8l1-5.4c0-0.3,0.2-0.5,0.4-0.6c0.2-0.2,0.5-0.2,0.7-0.2l22.1,4.1c0.3,0.1,0.5,0.2,0.6,0.4
			c0.1,0.2,0.2,0.5,0.1,0.7l-1,5.4c0,0.2-0.2,0.4-0.4,0.6c-0.2,0.2-0.5,0.2-0.7,0.2l-7.2-1.3l-4.9,26.6c0,0.2-0.2,0.4-0.4,0.6
			c-0.2,0.2-0.5,0.2-0.7,0.2l-5.9-1.1c-0.2,0-0.4-0.2-0.6-0.4c-0.2-0.2-0.2-0.5-0.2-0.7l4.9-26.6l-7.1-1.3c-0.3-0.1-0.5-0.2-0.6-0.4
			C-64.3,216.3-64.4,216-64.3,215.8z"/>
		<path class="st1" d="M-33.2,250.9l13.2-30.8c0.1-0.2,0.3-0.4,0.5-0.5s0.5-0.1,0.7,0l5.5,2.4c0.3,0.1,0.4,0.3,0.5,0.5
			s0.1,0.5,0,0.7l-5,11.7l13.3,5.7l5-11.7c0.1-0.2,0.3-0.4,0.5-0.5c0.2-0.1,0.5-0.1,0.7,0l5.5,2.4c0.2,0.1,0.4,0.3,0.5,0.5
			s0.1,0.5,0,0.7l-13.2,30.8c-0.1,0.2-0.3,0.4-0.5,0.5c-0.3,0.1-0.5,0.1-0.7,0l-5.5-2.4c-0.3-0.1-0.4-0.3-0.5-0.5
			c-0.1-0.2-0.1-0.5,0-0.7l5.3-12.2l-13.3-5.7l-5.3,12.2c-0.1,0.2-0.3,0.4-0.5,0.5c-0.2,0.1-0.5,0.1-0.7,0l-5.5-2.4
			c-0.2-0.1-0.4-0.3-0.5-0.5C-33.3,251.4-33.3,251.1-33.2,250.9z"/>
		<path class="st1" d="M27.3,243.4c0.3-0.1,0.7,0,0.9,0.2l4.7,4.6c0.2,0.2,0.3,0.5,0.2,0.9L31,261.5l12.3-2.5c0.4-0.1,0.7,0,0.9,0.2
			l4.7,4.6c0.3,0.3,0.4,0.6,0.3,0.9c0,0.2-0.1,0.3-0.2,0.4c-0.1,0.1-0.3,0.2-0.5,0.3l-19.9,4.2l-11.2,11.6c-0.2,0.2-0.4,0.3-0.7,0.3
			c-0.3,0-0.5-0.1-0.7-0.3l-4.3-4.2c-0.2-0.2-0.3-0.4-0.3-0.7s0.1-0.5,0.3-0.7l11.2-11.5l3.8-19.9c0-0.2,0.1-0.4,0.3-0.5
			C27,243.6,27.1,243.5,27.3,243.4z"/>
	</g>
	<g>
		<path class="st2" d="M-211.1,300.8c0-1.5,0.3-3.5,1.1-5.9l3.6,1.1c-0.2,3.2-0.6,5.5-1.3,8c1.6,1.6,3.6,3.5,3.6,6.3
			c0,3.1-2.2,7-2.2,8.7c0,0.7,0.3,1,0.8,1c1.1,0,2.7-2.5,4.8-8.1c0.2,0,1.3,0.3,1.3,0.6v0c-2.1,5.5-3.8,11-7.7,11
			c-2.3,0-3.1-1.4-3.1-3.6c0-3.1,2.2-6.5,2.2-9c0-1.4-0.4-2.5-1-3.5c-3.5,9.1-8.1,12.6-11.8,13.8c1.9,2,2.7,4.6,2.7,6.9
			c0,3.5-1.8,6.4-4.3,6.4c-2.2,0-4.5-1-4.5-6.6c0-10.4,4.9-33.9,7.5-39.8c0.9-2,2.4-3,3.9-3c1.7,0,3.2,1.3,3.2,3.8
			c0,10-6.3,19.7-9,23.3c-0.5,2.4-0.9,4.8-1.2,7.1c6.8-1.2,10.9-8.9,12.1-14.4C-210.7,303.8-211.1,302.5-211.1,300.8z M-220.4,328.8
			c0-2-0.7-4.5-2.4-6.1c-0.2,2.2-0.4,4.1-0.4,5.7c0,2.3,0.3,3.7,1.2,3.7C-221,332-220.4,330.6-220.4,328.8z M-214.8,288.2
			c-1,0-3.4,9.3-5.4,19.1c2.3-4.4,5.8-12.2,5.8-18C-214.3,288.6-214.5,288.2-214.8,288.2z"/>
		<path class="st2" d="M-183.6,312.5c-1.1,2.9-3.3,4.9-5.6,5.7c-1.6,3.5-4.1,5.6-7.1,5.6c-3.3,0-4.7-3.5-4.7-7.8
			c0-2.7,0.5-5.7,1.5-8.5l1.7,0.4c0.5-3.7,2.5-6.9,5.9-6.9c3.2,0,4.9,3.7,4.9,8c0,2.3-0.6,4.8-1.2,6.9c1.2-0.6,2.4-1.8,3.3-4
			C-184.7,311.8-183.6,312.2-183.6,312.5z M-193.6,318.3c-2-0.8-3.3-2.7-4-5c-0.1,0.7-0.1,1.4-0.1,2.1c0,2.8,0.8,4.8,2,4.8
			c0.1,0,0.2,0,0.4,0C-194.7,319.9-194.1,319.2-193.6,318.3z M-195.5,310.6c0,2.6,0.8,5.1,2.9,5.7c1.1-2.5,1.8-5.9,1.8-8.4
			c0-2.2-0.5-3.8-1.9-3.8c-0.1,0-0.2,0-0.3,0C-194.4,304.4-195.5,307.5-195.5,310.6z"/>
		<path class="st2" d="M-187.4,323.3c0,0,0.4-4.4,1.8-8c1-5.4,1.8-10.3,2.3-13.9h4.1l-0.5,3.2c1.5-2.3,3.5-3.7,5.5-3.7
			c1.7,0,2.8,1.1,2.8,3.4c0,4.5-3.1,10.2-3.1,14.1c0,1.4,0.5,1.6,1,1.6c1.2,0,2.8-2.7,4.9-8.2c0.3,0,1.3,0.4,1.3,0.7
			c-2.1,5.5-4.3,11-8.2,11c-1.7,0-3.3-1.3-3.3-4.3c0-5.2,3.1-10.5,3.1-13.9c0-0.5-0.2-1-0.8-1c-1.2,0-3.3,2.3-4.9,9l-1.9,9.9H-187.4
			z"/>
		<path class="st2" d="M-161.2,290.1c-0.2,3.9-0.7,7.6-1.5,11.4c0.8,0,1.4,0,1.9-0.1l-0.4,2.3c-0.2,0-1.1,0-2,0
			c-0.4,1.8-0.9,3.7-1.5,5.7c-0.5,3.3-0.7,5.8-0.7,7.6c0,2,0.3,3.1,1,3.1c1.3,0,3.2-4.5,4.6-8.2c0.3,0,1.3,0.4,1.3,0.7
			c-2.8,7.7-4.3,11-7.4,11c-2.1,0-3-2.6-3-6.7c0-3.5,0.5-8.2,1.6-13.1c-1.1,0-1.9,0-2.1,0l0.3-2.3c0.3,0,1.2,0,2.2,0
			c0.6-3.3,1.2-6.5,2.3-11.4H-161.2z"/>
		<path class="st2" d="M-150.2,309.7l-0.4,2.5h-8.6l0.4-2.5H-150.2z"/>
		<path class="st2" d="M-135.7,311.8c0.3,0,1.3,0.4,1.3,0.7c-2.4,6.3-4.8,11.3-9.5,11.3c-4.2,0-5.9-3.8-5.9-8.3
			c0-6.5,3.6-14.5,9-14.5c2.4,0,3.6,1.7,3.6,3.9c0,3.4-2.9,8-8.5,8.9c0,0.2,0,0.5,0,0.7c0,2.9,0.8,5.2,3,5.2
			C-139.9,319.7-137.5,316.7-135.7,311.8z M-145.6,312c3.6-1.8,5.2-5.1,5.2-6.9c0-0.7-0.3-1.2-0.8-1.2
			C-143.1,303.9-145,308-145.6,312z"/>
		<path class="st2" d="M-138.1,323.3c0,0,0.4-4.4,1.8-8c1-5.4,1.8-10.3,2.3-13.9h4.1l-0.5,3.2c1.5-2.3,3.5-3.7,5.5-3.7
			c1.7,0,2.8,1.1,2.8,3.4c0,4.5-3.1,10.2-3.1,14.1c0,1.4,0.5,1.6,1,1.6c1.2,0,2.8-2.7,4.9-8.2c0.3,0,1.3,0.4,1.3,0.7
			c-2.1,5.5-4.3,11-8.2,11c-1.7,0-3.3-1.3-3.3-4.3c0-5.2,3.1-10.5,3.1-13.9c0-0.5-0.2-1-0.8-1c-1.2,0-3.3,2.3-4.9,9l-1.9,9.9H-138.1
			z"/>
		<path class="st2" d="M-105.4,285.6h3.8c-0.2,4.1-1.9,13.9-4,21.9c-0.9,5.1-1.3,8.1-1.3,9.7c0,1,0.1,1.4,0.5,1.4
			c1.1,0,2.5-2.7,4.1-6.7c0.3,0,1.3,0.4,1.3,0.7c-2.9,7.7-5.7,11-7.9,11c-1.5,0-2.4-1.4-2.4-4.7c0-0.1,0-0.3,0-0.5
			c-1.1,2.9-2.8,5.5-5.5,5.5c-2.3,0-3.3-2.6-3.3-6.1c0-6.8,3.6-16.7,8.2-16.7c1.8,0,2.8,1.1,3.1,3.2L-105.4,285.6z M-116.1,317.2
			c0,1.5,0.3,2.5,1,2.5c2.2,0,4.9-7.8,4.9-12.3c0-1.8-0.4-3-1.5-3C-113.7,304.4-116.1,312.9-116.1,317.2z"/>
		<path class="st2" d="M-79.7,285.6h3.8c-0.2,4.1-1.9,13.9-4,21.9c-0.9,5.1-1.3,8.1-1.3,9.7c0,1,0.1,1.4,0.5,1.4
			c1.1,0,2.5-2.7,4.1-6.7c0.3,0,1.3,0.4,1.3,0.7c-2.9,7.7-5.7,11-7.9,11c-1.5,0-2.4-1.4-2.4-4.7c0-0.1,0-0.3,0-0.5
			c-1.1,2.9-2.8,5.5-5.5,5.5c-2.3,0-3.3-2.6-3.3-6.1c0-6.8,3.6-16.7,8.2-16.7c1.8,0,2.8,1.1,3.1,3.2L-79.7,285.6z M-90.4,317.2
			c0,1.5,0.3,2.5,1,2.5c2.2,0,4.9-7.8,4.9-12.3c0-1.8-0.4-3-1.5-3C-88,304.4-90.4,312.9-90.4,317.2z"/>
		<path class="st2" d="M-62.9,311.8c0.3,0,1.3,0.4,1.3,0.7c-2.4,6.3-4.8,11.3-9.5,11.3c-4.2,0-5.9-3.8-5.9-8.3
			c0-6.5,3.6-14.5,9-14.5c2.4,0,3.6,1.7,3.6,3.9c0,3.4-2.9,8-8.5,8.9c0,0.2,0,0.5,0,0.7c0,2.9,0.8,5.2,3,5.2
			C-67.1,319.7-64.8,316.7-62.9,311.8z M-72.8,312c3.6-1.8,5.2-5.1,5.2-6.9c0-0.7-0.3-1.2-0.8-1.2C-70.4,303.9-72.2,308-72.8,312z"
			/>
		<path class="st2" d="M-56.1,314.5c-0.6-1.6-1-3.6-1-5.8c0-5.1,1.9-10.5,5-10.5c1.9,0,3.3,1.5,3.3,4.2c0,4.3-1.8,9.4-4.3,13.8
			c0.4,0.2,0.8,0.3,1.3,0.3c2.2,0,3.4-2,4.4-4.7c0.3,0,1.3,0.4,1.3,0.7c-1.2,3.2-2.9,5.5-6,5.5c-0.7,0-1.3-0.1-1.8-0.5
			c-1.4,2.3-3,4.4-4.5,5.8h-2.6c-0.3-4-0.6-7.6-0.7-10.8c-0.3,0-1.3-0.3-1.3-0.7l1.1-2.9c0-0.9,0-1.8,0-2.6c0-1.8,0-3.5,0.2-4.9h3.4
			c0,0.2,0.1,0.5,0.1,0.8c0,1.3-0.4,2.6-1.3,5.1c0.1,2.7,0.4,6.6,0.9,11.5C-57.7,317.5-56.9,316-56.1,314.5z M-52.6,300.3
			c-1.5,0-2.7,4.6-2.7,8.9c0,1.1,0.1,2.1,0.2,3c2.1-4.8,3-9.5,3-11.1C-52.1,300.5-52.3,300.3-52.6,300.3z"/>
		<path class="st2" d="M-33.6,311.8c0.3,0,1.3,0.4,1.3,0.7c-2.4,6.3-4.8,11.3-9.5,11.3c-4.2,0-5.9-3.8-5.9-8.3
			c0-6.5,3.6-14.5,9-14.5c2.4,0,3.6,1.7,3.6,3.9c0,3.4-2.9,8-8.5,8.9c0,0.2,0,0.5,0,0.7c0,2.9,0.8,5.2,3,5.2
			C-37.8,319.7-35.4,316.7-33.6,311.8z M-43.5,312c3.6-1.8,5.2-5.1,5.2-6.9c0-0.7-0.3-1.2-0.8-1.2C-41,303.9-42.9,308-43.5,312z"/>
		<path class="st2" d="M-22.8,311.8c0.2,0,1.2,0.4,1.2,0.6c0,0,0,0,0,0c-2.8,7.7-5,11.3-8.1,11.3c-2.9,0-4-2.8-4-7.8
			c0-3.5,0.6-8.1,1.5-13.6c2.2-12,5.2-17.4,8-17.4c2.5,0,3.2,2,3.2,4.5c0,2.8-1,6.2-1.4,7.7c-2,6.3-5.2,11-7.1,13.3
			c-0.2,2.1-0.4,3.9-0.4,5.5c0,3.2,0.7,4.2,1.8,4.2C-26.7,320.1-24.8,317.2-22.8,311.8z M-23.7,288.2c-1.3,0-4.1,10.4-5.5,19.3
			c2.4-4.4,5.9-12.4,6-18.2C-23.2,288.6-23.5,288.2-23.7,288.2z"/>
		<path class="st2" d="M-5.7,312.5c-1.1,2.9-3.3,4.9-5.6,5.7c-1.6,3.5-4.1,5.6-7.1,5.6c-3.3,0-4.7-3.5-4.7-7.8
			c0-2.7,0.5-5.7,1.5-8.5l1.7,0.4c0.5-3.7,2.5-6.9,5.9-6.9c3.2,0,4.9,3.7,4.9,8c0,2.3-0.6,4.8-1.2,6.9c1.2-0.6,2.4-1.8,3.3-4
			C-6.8,311.8-5.7,312.2-5.7,312.5z M-15.6,318.3c-2-0.8-3.3-2.7-4-5c-0.1,0.7-0.1,1.4-0.1,2.1c0,2.8,0.8,4.8,2,4.8
			c0.1,0,0.2,0,0.4,0C-16.8,319.9-16.2,319.2-15.6,318.3z M-17.6,310.6c0,2.6,0.8,5.1,2.9,5.7c1.1-2.5,1.8-5.9,1.8-8.4
			c0-2.2-0.5-3.8-1.9-3.8c-0.1,0-0.2,0-0.3,0C-16.5,304.4-17.6,307.5-17.6,310.6z"/>
		<path class="st2" d="M-2,301.4l-0.4,2.6c1.2-1.9,2.7-3.1,4.2-3.1c2.7,0,3.8,2.8,3.8,6.5c0,4.6-1.8,10.7-4.6,14.2
			c4.2-1,6.4-5.1,8.2-9.8c0.3,0,1.3,0.4,1.3,0.7c-2.2,5.8-5.1,11.3-11,11.3c-2,0-3.9-0.8-4.8-2.7L-8,337.6h-3.2c0-0.1,0-0.3,0-0.5
			c0-3.7,1-8.5,2-11.8c1.5-9,3.4-20.6,3.6-23.9H-2z M-10.9,335.8c0,0.3-0.1,0.6-0.1,0.7C-11,336.3-11,336.1-10.9,335.8z
			 M-10.7,334.6c0,0.2-0.1,0.4-0.1,0.6C-10.8,335-10.8,334.8-10.7,334.6z M-4.4,315.8c0,0.3,0,0.6,0,0.9c0,1.5,0.4,3,1.7,3
			c2.2,0,4.2-7.9,4.2-12.3c0-1.8-0.3-3-1.1-3c-1.4,0-2.9,2.6-4.1,7.3L-4.4,315.8z"/>
		<path class="st2" d="M23,311.8c0.3,0,1.3,0.4,1.3,0.7c-2.4,6.3-4.8,11.3-9.5,11.3c-4.2,0-5.9-3.8-5.9-8.3c0-6.5,3.6-14.5,9-14.5
			c2.4,0,3.6,1.7,3.6,3.9c0,3.4-2.9,8-8.5,8.9c0,0.2,0,0.5,0,0.7c0,2.9,0.8,5.2,3,5.2C18.8,319.7,21.2,316.7,23,311.8z M13.1,312
			c3.6-1.8,5.2-5.1,5.2-6.9c0-0.7-0.3-1.2-0.8-1.2C15.6,303.9,13.7,308,13.1,312z"/>
		<path class="st2" d="M27.2,311c0-1.4-0.4-2.5-1-3.5l-1.9,5.1c0,0-1.3-0.2-1.3-0.6v0c0.9-2.3,1.5-4.7,2-7c-0.5-1.1-0.9-2.3-0.9-4
			c0-1.5,0.3-3.5,1.1-5.9l3.6,1.1c-0.2,3.2-0.6,5.5-1.3,8c1.6,1.6,3.6,3.5,3.6,6.3c0,3.1-3.2,7.9-3.2,12c0,5.3,3.3,7.3,6.8,7.3
			c4.2,0,6.6-3.4,6.6-6.9c0-2.1-0.9-4.2-2.6-5.7l2.7-3.4c2.6,2,3.9,5,3.9,8.1c0,5.2-3.8,10.3-10.6,10.3c-5.3,0-10.5-3.5-10.5-9.8
			C24.1,317.7,27.2,313.4,27.2,311z"/>
	</g>
</g>
</svg>
